<svg
  width="200"
  height="220"
  viewBox="0 0 200 220"
  fill="none"
  xmlns="http://www.w3.org/2000/svg"
>
  <!-- Outer shield -->
  <path
    d="M100 10L20 55v55c0 52 34.5 100 80 112 45.5-12 80-60 80-112V55L100 10z"
    stroke="#F59E0B"
    stroke-width="2"
    fill="rgba(245, 158, 11, 0.04)"
  />
  <!-- Inner shield -->
  <path
    d="M100 30L35 65v45c0 42 27 82 65 92 38-10 65-50 65-92V65L100 30z"
    stroke="#F59E0B"
    stroke-width="1"
    fill="rgba(245, 158, 11, 0.06)"
    opacity="0.6"
  />
  <!-- Keyhole circle -->
  <circle
    cx="100"
    cy="95"
    r="16"
    stroke="#F59E0B"
    stroke-width="2"
    fill="rgba(245, 158, 11, 0.1)"
  />
  <!-- Keyhole slot -->
  <rect
    x="95"
    y="108"
    width="10"
    height="25"
    rx="2"
    fill="rgba(245, 158, 11, 0.2)"
    stroke="#F59E0B"
    stroke-width="1"
  />
  <!-- Keyhole inner dot -->
  <circle cx="100" cy="95" r="6" fill="#F59E0B" opacity="0.7" />
  <!-- Corner ticks -->
  <line x1="40" y1="50" x2="50" y2="50" stroke="#F59E0B" stroke-width="1" opacity="0.4" />
  <line x1="40" y1="50" x2="40" y2="60" stroke="#F59E0B" stroke-width="1" opacity="0.4" />
  <line x1="160" y1="50" x2="150" y2="50" stroke="#F59E0B" stroke-width="1" opacity="0.4" />
  <line x1="160" y1="50" x2="160" y2="60" stroke="#F59E0B" stroke-width="1" opacity="0.4" />
</svg>
