<svg xmlns="http://www.w3.org/2000/svg" viewBox="0 0 200 200" width="200" height="200">
  <!-- "The Terminal" - Hex background + terminal window + 4 color-coded log lines -->
  <!-- Background hexagon -->
  <polygon points="100,18 176,61 176,139 100,182 24,139 24,61" fill="#475569"/>
  <!-- Terminal window -->
  <rect x="38" y="48" width="124" height="108" rx="6" fill="white" opacity="0.15"/>
  <rect x="38" y="48" width="124" height="20" rx="6" fill="white" opacity="0.2"/>
  <!-- Clip the bottom corners of title bar -->
  <rect x="38" y="58" width="124" height="10" fill="white" opacity="0.2"/>
  <!-- Traffic-light dots -->
  <circle cx="52" cy="58" r="3.5" fill="#EF4444" opacity="0.8"/>
  <circle cx="63" cy="58" r="3.5" fill="#F59E0B" opacity="0.8"/>
  <circle cx="74" cy="58" r="3.5" fill="#10B981" opacity="0.8"/>
  <!-- Log lines (4 lines, wider) -->
  <!-- INFO -->
  <rect x="48" y="78" width="30" height="9" rx="2" fill="#60A5FA"/>
  <rect x="82" y="78" width="68" height="9" rx="2" fill="white" opacity="0.5"/>
  <!-- WARN -->
  <rect x="48" y="95" width="32" height="9" rx="2" fill="#FBBF24"/>
  <rect x="84" y="95" width="56" height="9" rx="2" fill="white" opacity="0.5"/>
  <!-- ERROR -->
  <rect x="48" y="112" width="36" height="9" rx="2" fill="#F87171"/>
  <rect x="88" y="112" width="62" height="9" rx="2" fill="white" opacity="0.5"/>
  <!-- DEBUG -->
  <rect x="48" y="129" width="34" height="9" rx="2" fill="#A78BFA"/>
  <rect x="86" y="129" width="50" height="9" rx="2" fill="white" opacity="0.5"/>
</svg>
