<svg xmlns="http://www.w3.org/2000/svg" viewBox="0 0 200 200" width="200" height="200">
  <!-- "Logs → Axe" - Compact log lines + arrow + axe + JSON braces -->
  <!-- Background hexagon -->
  <polygon points="100,18 176,61 176,139 100,182 24,139 24,61" fill="#475569"/>
  <!-- Compact colored log lines (left) -->
  <rect x="32" y="62" width="22" height="8" rx="2" fill="#60A5FA"/>
  <rect x="57" y="62" width="32" height="8" rx="2" fill="white" opacity="0.4"/>
  <rect x="32" y="76" width="24" height="8" rx="2" fill="#FBBF24"/>
  <rect x="59" y="76" width="28" height="8" rx="2" fill="white" opacity="0.4"/>
  <rect x="32" y="90" width="26" height="8" rx="2" fill="#F87171"/>
  <rect x="61" y="90" width="30" height="8" rx="2" fill="white" opacity="0.4"/>
  <!-- Arrow bridge -->
  <line x1="96" y1="80" x2="112" y2="80" stroke="white" stroke-width="2.5"/>
  <polyline points="109,75 115,80 109,85" fill="none" stroke="white" stroke-width="2.5" stroke-linecap="round" stroke-linejoin="round"/>
  <!-- Simplified axe -->
  <rect x="140" y="50" width="6" height="70" rx="2" fill="white" opacity="0.7"/>
  <path d="M 140,55 Q 118,55 118,80 L 140,80 Z" fill="white" opacity="0.85"/>
  <!-- JSON braces as paths (not text) -->
  <path d="M 88,130 L 82,136 L 82,144 L 76,148 L 82,152 L 82,160 L 88,166"
    fill="none" stroke="white" stroke-width="2.5" stroke-linecap="round" stroke-linejoin="round" opacity="0.3"/>
  <path d="M 112,130 L 118,136 L 118,144 L 124,148 L 118,152 L 118,160 L 112,166"
    fill="none" stroke="white" stroke-width="2.5" stroke-linecap="round" stroke-linejoin="round" opacity="0.3"/>
</svg>
