<svg xmlns="http://www.w3.org/2000/svg" viewBox="0 0 200 200" width="200" height="200">
  <!-- "Atom → React Orbits" - Compact reactive atom + bridge + React orbits -->
  <!-- Background hexagon -->
  <polygon points="100,18 176,61 176,139 100,182 24,139 24,61" fill="#059669"/>
  <!-- Compact reactive atom motif (top) -->
  <ellipse cx="100" cy="65" rx="32" ry="12" fill="none" stroke="white" stroke-width="1.5" opacity="0.5"/>
  <ellipse cx="100" cy="65" rx="32" ry="12" fill="none" stroke="white" stroke-width="1.5" opacity="0.5" transform="rotate(60, 100, 65)"/>
  <ellipse cx="100" cy="65" rx="32" ry="12" fill="none" stroke="white" stroke-width="1.5" opacity="0.5" transform="rotate(120, 100, 65)"/>
  <circle cx="100" cy="65" r="8" fill="white"/>
  <!-- Dashed bridge arrow downward -->
  <line x1="100" y1="82" x2="100" y2="104" stroke="white" stroke-width="2" stroke-dasharray="4,3"/>
  <polyline points="96,100 100,106 104,100" fill="none" stroke="white" stroke-width="2" stroke-linecap="round" stroke-linejoin="round"/>
  <!-- React orbital ellipses (bottom) -->
  <ellipse cx="100" cy="140" rx="42" ry="15" fill="none" stroke="white" stroke-width="1.5" opacity="0.6"/>
  <ellipse cx="100" cy="140" rx="42" ry="15" fill="none" stroke="white" stroke-width="1.5" opacity="0.6" transform="rotate(60, 100, 140)"/>
  <ellipse cx="100" cy="140" rx="42" ry="15" fill="none" stroke="white" stroke-width="1.5" opacity="0.6" transform="rotate(120, 100, 140)"/>
  <circle cx="100" cy="140" r="6" fill="white"/>
  <!-- React badge (mini orbital symbol) -->
  <circle cx="158" cy="50" r="12" fill="white" opacity="0.15"/>
  <ellipse cx="158" cy="50" rx="10" ry="4" fill="none" stroke="white" stroke-width="1" opacity="0.6"/>
  <ellipse cx="158" cy="50" rx="10" ry="4" fill="none" stroke="white" stroke-width="1" opacity="0.6" transform="rotate(60, 158, 50)"/>
  <ellipse cx="158" cy="50" rx="10" ry="4" fill="none" stroke="white" stroke-width="1" opacity="0.6" transform="rotate(120, 158, 50)"/>
  <circle cx="158" cy="50" r="2" fill="white"/>
</svg>
